# xmcd CD database file
#
# Track frame offsets:
#	187
#	18637
#	39365
#	57830
#
# Disc length: 1046 seconds
#
# Revision: 0
# Processed by: cddbd v1.5.1PL2 Copyright (c) Steve Scherf et al.
# Submitted via: CDex 1.51
#
DISCID=2a041404
DTITLE=三好鉄生 - ぐでんぐでん
DYEAR=1990
DGENRE=J-POP
TTITLE0=ぐでんぐでん
TTITLE1=ふるさと
TTITLE2=ぐでんぐでん（カラオケ）
TTITLE3=ふるさと（カラオケ）
EXTD=YEAR: 1990/9/21
EXTT0=
EXTT1=
EXTT2=
EXTT3=
PLAYORDER=
